<svg width="3782" height="3782" xmlns="http://www.w3.org/2000/svg" version="1.1" xml:space="preserve">
 <g>
  <title>Layer 1</title>
  <g id="svg_1">
   <path class="st0" d="m870.6944,3463.52305l1974,1.1c0,0 97.2,2.6 149.5,-28.1c78.8,-46.1 199.4,-138.7 330.6,-285.5c294.4,-329.5 423.9,-692.5 452.3,-1013.4c28.4,-320.9 -63.8,-687.4 -132.4,-824.7c-32,-63.9 -82.1,-73.4 -121.2,-59.1c-83,30.5 -222.3,151.5 -314.5,194.2c-92.7,43 -113,67.1 -379.6,140.8c-266.6,73.6 -459.9,81 -459.9,81s278.6,-423.5 -62.9,-913.5c-341.4,-490 -907.8,-456.6 -1063.3,-420.6c-155.4,36 -376.4,108.3 -535.1,292c-158.7,183.7 -183.3,317.6 -183.3,317.6s-47.7,12.7 -92,7.1c-59.5,-7.5 -230,-45.1 -300.5,-36c-77.3,9.9 -117,76.4 -129.3,144.1c-14.2,78.3 6.6,219.3 227.8,384.8c131,98 390.9,210 390.9,210s24.6,39.6 37.8,58.4c15.5,21.9 48.3,63.8 48.3,63.8s-337.1,291.8 -373.4,701.2c-12.4,139.4 -19.1,380.3 129.6,646.9c48.6,87.2 144.4,226.3 239.9,298.6c60.4,45.6 166.7,39.3 166.7,39.3z" fill="#FFBA00" id="svg_2"/>
  </g>
 </g>

</svg>